<svg id="Group_196" data-name="Group 196" xmlns="http://www.w3.org/2000/svg" width="42.102" height="52.918" viewBox="0 0 42.102 52.918">
  <path id="Path_265" data-name="Path 265" d="M27.251,53.722c2.735-1.367,3.559-2.788,3.193-5.537a4.648,4.648,0,0,0,4.135-1.341,4.4,4.4,0,0,0,1.149-4.119,13.827,13.827,0,0,0,2.3-.329,4.4,4.4,0,0,0,1.783-7.341c-1.489-1.49-3.039-2.918-4.565-4.369Q29.173,24.913,23.1,19.143c-.532-.505-1.078-1-1.592-1.519a3.151,3.151,0,0,1,4.35-4.557c1.933,1.779,3.824,3.6,5.732,5.409q4.176,3.954,8.352,7.908a8.462,8.462,0,0,0,2.585,1.722,3.189,3.189,0,0,0,3.625-.585,8.7,8.7,0,0,0,1.4-1.681c.919-1.432,1.731-2.934,2.661-4.359a3.809,3.809,0,0,1,6.4,4.14c-1.453,2.438-2.927,4.864-4.394,7.3-.721,1.2-1.435,2.4-2.173,3.58a.822.822,0,0,0-.031.911c.684,1.376,1.327,2.771,2,4.153a8.659,8.659,0,0,1-4,11.861q-4.61,2.276-9.274,4.442a8.665,8.665,0,0,1-11.087-3.409C27.5,54.218,27.381,53.966,27.251,53.722Z" transform="translate(-15.094 -5.755)" fill="#7977c6"/>
  <path id="Path_266" data-name="Path 266" d="M21.037,49.416a2.928,2.928,0,0,1,1.811.822c3.1,2.916,6.214,5.827,9.3,8.764a3.158,3.158,0,0,1-4.352,4.577c-2.716-2.534-5.408-5.094-8.111-7.643-.378-.357-.77-.7-1.14-1.066a3.2,3.2,0,0,1-.731-3.533A3.279,3.279,0,0,1,21.037,49.416Z" transform="translate(-13.678 -23.266)" fill="#7977c6"/>
  <path id="Path_267" data-name="Path 267" d="M43.106,51.142a3.168,3.168,0,0,1-5.147,2.01c-1.452-1.285-2.834-2.65-4.244-3.982q-2.528-2.388-5.051-4.782A3.039,3.039,0,0,1,27.7,41.36,3.146,3.146,0,0,1,33,39.783c1.165,1.074,2.3,2.178,3.454,3.268,1.753,1.659,3.5,3.327,5.262,4.973A3.772,3.772,0,0,1,43.106,51.142Z" transform="translate(-18.408 -18.303)" fill="#7977c6"/>
  <path id="Path_268" data-name="Path 268" d="M13.493,62.4a3.234,3.234,0,0,1,2.255,1.027q3.135,2.981,6.277,5.956c.429.407.869.8,1.291,1.216a3.166,3.166,0,1,1-4.371,4.575c-2.459-2.32-4.9-4.657-7.371-6.967a3.36,3.36,0,0,1-1.289-3.255A3.122,3.122,0,0,1,13.493,62.4Z" transform="translate(-10.219 -29.377)" fill="#7977c6"/>
  <path id="Path_269" data-name="Path 269" d="M69.638,16.185a1.372,1.372,0,0,1-1.265-.749,1.2,1.2,0,0,1,.2-1.384,2.837,2.837,0,0,1,.487-.409c1.124-.826,2.245-1.654,3.378-2.466a1.283,1.283,0,0,1,1.882.191,1.265,1.265,0,0,1-.367,1.853q-1.761,1.314-3.55,2.591A4.394,4.394,0,0,1,69.638,16.185Z" transform="translate(-37.537 -5.112)" fill="#7977c6"/>
  <path id="Path_270" data-name="Path 270" d="M46.208,9.139a1.349,1.349,0,0,1-.774,1.314A1.257,1.257,0,0,1,44,10.139c-.995-1.32-1.977-2.651-2.915-4.011a1.207,1.207,0,0,1,.367-1.689,1.254,1.254,0,0,1,1.714.28c.951,1.264,1.877,2.547,2.8,3.835A2.352,2.352,0,0,1,46.208,9.139Z" transform="translate(-24.657 -1.986)" fill="#7977c6"/>
  <path id="Path_271" data-name="Path 271" d="M63.385,9.244a1.248,1.248,0,0,1-1.138-1.808c.2-.529.453-1.038.682-1.556C63.318,5,63.693,4.1,64.1,3.229a1.248,1.248,0,0,1,1.572-.736,1.213,1.213,0,0,1,.782,1.653c-.618,1.5-1.3,2.985-1.971,4.466A1.118,1.118,0,0,1,63.385,9.244Z" transform="translate(-34.663 -1.141)" fill="#7977c6"/>
  <path id="Path_272" data-name="Path 272" d="M56.115,5.673c.02.914-.414,1.467-1.132,1.536A1.284,1.284,0,0,1,53.591,6c-.172-1.478-.329-2.958-.457-4.44A1.8,1.8,0,0,1,53.3.61,1.125,1.125,0,0,1,54.561.023a1.157,1.157,0,0,1,1.033,1.022c.144,1.076.253,2.157.375,3.237C56.024,4.774,56.073,5.268,56.115,5.673Z" transform="translate(-30.421 0.001)" fill="#7977c6"/>
</svg>
