<svg xmlns="http://www.w3.org/2000/svg" width="41.702" height="47.92" viewBox="0 0 41.702 47.92">
  <g id="Group_197" data-name="Group 197" transform="translate(-1168.077 -4845)">
    <g id="noun_Time_2297331" transform="translate(1168.077 4845)">
      <g id="_01_Time" data-name="01 Time" transform="translate(0 0)">
        <path id="Path_273" data-name="Path 273" d="M18.461,41.248A17.852,17.852,0,0,1,22.932,6.113a1.5,1.5,0,0,0,1.383-2.072,1.535,1.535,0,0,0-.324-.488L20.876.446a1.5,1.5,0,1,0-2.12,2.118l.851.851a20.833,20.833,0,0,0-1.9,40.743,1.48,1.48,0,0,0,.376.048,1.5,1.5,0,0,0,.374-2.948Z" transform="translate(-2.077 -0.007)" fill="#7977c6"/>
        <path id="Path_274" data-name="Path 274" d="M37.344,22.7A20.906,20.906,0,0,0,22.02,2.6a1.5,1.5,0,1,0-.794,2.888A17.852,17.852,0,0,1,16.5,40.551a1.5,1.5,0,0,0-1.059,2.557l3.116,3.117a1.5,1.5,0,1,0,2.12-2.118l-.851-.851A20.861,20.861,0,0,0,37.344,22.7Z" transform="translate(4.358 1.256)" fill="#7977c6"/>
      </g>
    </g>
    <g id="noun_Time_2573504" transform="translate(1174.217 4854.251)">
      <g id="Layer_63" data-name="Layer 63" transform="translate(0 0)">
        <path id="Path_277" data-name="Path 277" d="M16.716,2A14.716,14.716,0,1,0,31.431,16.716,14.716,14.716,0,0,0,16.716,2Zm7.242,18.342a1.051,1.051,0,0,1-.935.578.978.978,0,0,1-.473-.116l-6.307-3.153a1.051,1.051,0,0,1-.578-.935V7.256a1.051,1.051,0,1,1,2.1,0v8.808l5.729,2.87A1.051,1.051,0,0,1,23.958,20.342Z" transform="translate(-2 -2)" fill="#7977c6"/>
      </g>
    </g>
  </g>
</svg>
