<svg xmlns="http://www.w3.org/2000/svg" width="50.509" height="48.823" viewBox="0 0 50.509 48.823">
  <g id="noun_analysis_973417" transform="matrix(0.966, 0.259, -0.259, 0.966, 9.262, -4.855)">
    <path id="Path_284" data-name="Path 284" d="M38.652,4.7a4.818,4.818,0,0,0-4.813,4.813,4.583,4.583,0,0,0,1.439,3.418,3.547,3.547,0,0,0,.675.54L32.175,23.815H31.86a4.732,4.732,0,0,0-4.228,2.564l-6.612-2.744V23.5c0-.09.045-.135.045-.225a4.813,4.813,0,0,0-9.625-.045,4.328,4.328,0,0,0,1.124,3.013L8.247,34.07a3.834,3.834,0,0,0-1.034-.135A4.806,4.806,0,1,0,10.856,35.6l4.273-7.691a4.9,4.9,0,0,0,1.169.135,4.784,4.784,0,0,0,3.6-1.664l7.331,3.013a4.828,4.828,0,1,0,7.916-4.5L39.1,14.1a4.8,4.8,0,0,0,4.5-4.093,3.869,3.869,0,0,0,.045-.72A5.034,5.034,0,0,0,38.652,4.7ZM36.943,9.513a1.754,1.754,0,0,1,3.508,0,.765.765,0,0,0-.045.315A1.774,1.774,0,0,1,38.7,11.312a1.384,1.384,0,0,1-.855-.27,2.5,2.5,0,0,1-.36-.27A1.776,1.776,0,0,1,36.943,9.513Zm-6.792,18.8a1.774,1.774,0,0,1,1.709-1.394,1.663,1.663,0,0,1,.945.27,1.682,1.682,0,0,1,.855,1.484,1.754,1.754,0,0,1-3.508,0A.493.493,0,0,1,30.151,28.313ZM8.922,38.838a1.756,1.756,0,0,1-1.754,1.754,1.8,1.8,0,0,1-1.8-1.754,1.756,1.756,0,0,1,1.754-1.754,1.539,1.539,0,0,1,1.124.45A1.641,1.641,0,0,1,8.922,38.838Zm9.085-15.517v.09c0,.045-.045.135-.045.18a1.774,1.774,0,0,1-1.709,1.484,1.479,1.479,0,0,1-1.214-.54,1.678,1.678,0,0,1-.54-1.214,1.756,1.756,0,0,1,1.754-1.754A1.786,1.786,0,0,1,18.007,23.321Z" fill="#7977c6" stroke="#7977c6" stroke-width="0.5"/>
  </g>
</svg>
