<svg xmlns="http://www.w3.org/2000/svg" width="35.219" height="43.27" viewBox="0 0 35.219 43.27">
  <g id="noun_File_2905721" transform="translate(-6.5 -2.5)">
    <path id="Path_278" data-name="Path 278" d="M41.629,11.566c-.01-.03-.01-.06-.03-.081a1.289,1.289,0,0,0-.111-.2.22.22,0,0,0-.03-.05A1.374,1.374,0,0,0,41.267,11l-8.05-8.05a2.123,2.123,0,0,0-.231-.191l-.06-.03a.754.754,0,0,0-.2-.1l-.091-.03c-.06-.02-.121-.04-.191-.06a.83.83,0,0,0-.282-.04H8.009A1.507,1.507,0,0,0,6.5,4.009V44.26A1.507,1.507,0,0,0,8.009,45.77h32.2a1.507,1.507,0,0,0,1.509-1.509V12.06a1.536,1.536,0,0,0-.03-.3A1.4,1.4,0,0,0,41.629,11.566ZM35.682,37.719H12.538a1.509,1.509,0,1,1,0-3.019H35.682a1.509,1.509,0,1,1,0,3.019Zm0-8.05H12.538a1.509,1.509,0,1,1,0-3.019H35.682a1.509,1.509,0,1,1,0,3.019Zm0-8.05H12.538a1.509,1.509,0,1,1,0-3.019H35.682a1.509,1.509,0,1,1,0,3.019Z" transform="translate(0 0)" fill="#7977c6"/>
  </g>
</svg>
