<svg xmlns="http://www.w3.org/2000/svg" width="44.003" height="44" viewBox="0 0 44.003 44">
  <path id="Subtraction_2" data-name="Subtraction 2" d="M-8395-9825a21.869,21.869,0,0,1-15.557-6.442A21.86,21.86,0,0,1-8417-9847a21.85,21.85,0,0,1,6.445-15.557A21.856,21.856,0,0,1-8395-9869a21.928,21.928,0,0,1,7.658,1.369,21.944,21.944,0,0,1,6.486,3.78l-30.905,30.907,2.12,2.12,30.945-30.947A21.949,21.949,0,0,1-8373-9847a21.856,21.856,0,0,1-6.444,15.557A21.869,21.869,0,0,1-8395-9825Zm-1.89-8.771v3.779h3.779v-3.779a7.569,7.569,0,0,0,7.562-7.56,7.521,7.521,0,0,0-3.428-6.32l-2.833,2.776a3.816,3.816,0,0,1,2.479,3.544,3.784,3.784,0,0,1-3.779,3.78h-6.023l-3.426,3.425v.354Zm3.779-31.239h-3.779v3.779h0a7.566,7.566,0,0,0-7.557,7.558,7.526,7.526,0,0,0,3.426,6.321l2.836-2.776a3.809,3.809,0,0,1-2.482-3.542,3.786,3.786,0,0,1,3.78-3.782h6.023l3.428-3.425v-.354h-5.672Z" transform="translate(8417.001 9869)" fill="#7977c6"/>
</svg>
