<svg xmlns="http://www.w3.org/2000/svg" width="44.001" height="44" viewBox="0 0 44.001 44">
  <path id="Subtraction_3" data-name="Subtraction 3" d="M-8395-9825a21.858,21.858,0,0,1-15.558-6.443A21.856,21.856,0,0,1-8417-9847a21.859,21.859,0,0,1,6.444-15.558A21.858,21.858,0,0,1-8395-9869a21.855,21.855,0,0,1,15.556,6.443A21.858,21.858,0,0,1-8373-9847a21.855,21.855,0,0,1-6.443,15.556A21.855,21.855,0,0,1-8395-9825Zm-11.637-17.38-.091,0a1.432,1.432,0,0,0-1.278.767,1.694,1.694,0,0,0,.129,1.675,15.5,15.5,0,0,0,12.854,7,15.5,15.5,0,0,0,12.853-7,1.581,1.581,0,0,0,.216-1.175,1.563,1.563,0,0,0-.643-1,1.521,1.521,0,0,0-.854-.249,1.617,1.617,0,0,0-1.343.675,12.911,12.911,0,0,1-4.379,4.078,12.014,12.014,0,0,1-5.851,1.529,12.007,12.007,0,0,1-5.85-1.529,12.9,12.9,0,0,1-4.382-4.078A1.816,1.816,0,0,0-8406.636-9842.38Zm20.53-14.687a3.15,3.15,0,0,0-3.146,3.148,3.15,3.15,0,0,0,3.146,3.147,3.151,3.151,0,0,0,3.148-3.147A3.152,3.152,0,0,0-8386.105-9857.067Zm-17.835,0a3.152,3.152,0,0,0-3.148,3.148,3.151,3.151,0,0,0,3.148,3.147,3.151,3.151,0,0,0,3.148-3.147A3.152,3.152,0,0,0-8403.94-9857.067Z" transform="translate(8417.001 9869)" fill="#7977c6"/>
</svg>
