<svg xmlns="http://www.w3.org/2000/svg" width="44.278" height="40.355" viewBox="0 0 44.278 40.355">
  <g id="noun_Caution_7451" transform="translate(0 -3.812)">
    <path id="Path_259" data-name="Path 259" d="M43.724,37.722,25.911,6.019a4.327,4.327,0,0,0-7.544,0L.554,37.722a4.326,4.326,0,0,0,3.772,6.445H39.952a4.328,4.328,0,0,0,3.772-6.445ZM19.513,28.361V16.915c.038-1.776,1.058-2.947,2.645-2.947A2.668,2.668,0,0,1,24.8,16.915V28.928c-.038,1.813-1.058,2.946-2.644,2.946a2.648,2.648,0,0,1-2.645-2.946Zm2.643,11.307a3.035,3.035,0,0,1-3.032-3.033,3,3,0,0,1,3.032-3,2.974,2.974,0,0,1,3,3A3,3,0,0,1,22.156,39.668Z" fill="#7f74c7"/>
  </g>
</svg>
