<svg xmlns="http://www.w3.org/2000/svg" width="58.215" height="32.746" viewBox="0 0 58.215 32.746">
  <g id="noun_Cloud_31151" transform="translate(0.5 -112)">
    <path id="Path_258" data-name="Path 258" d="M57.715,137.412a7.277,7.277,0,0,1-7.277,7.277v.057H19.512a9.1,9.1,0,0,1-1.8-18.011c0-.06-.018-.117-.018-.181a10.886,10.886,0,0,1,20.619-4.9,9,9,0,0,1,12.116,8.428h.011v.057A7.277,7.277,0,0,1,57.715,137.412ZM14.271,124.045a14.555,14.555,0,0,1,8.478-10.759A10.681,10.681,0,0,0,17.692,112,10.914,10.914,0,0,0,6.777,122.915c0,.064.018.121.018.181a9.074,9.074,0,0,0,1.226,17.954,12.633,12.633,0,0,1-1.244-5.4A12.781,12.781,0,0,1,14.271,124.045Z" transform="translate(0 0)" fill="#7f74c7"/>
  </g>
</svg>
