<svg xmlns="http://www.w3.org/2000/svg" width="38.336" height="47.92" viewBox="0 0 38.336 47.92">
  <g id="noun_Safety_1930823" transform="translate(-12 -2.5)">
    <path id="Path_257" data-name="Path 257" d="M48.369,10.924A23.409,23.409,0,0,1,33.69,4.165L32.681,3.105a2.194,2.194,0,0,0-3.027,0L28.646,4.165a23.409,23.409,0,0,1-14.679,6.759A2.139,2.139,0,0,0,12,13.042v6.1A35.741,35.741,0,0,0,30.109,50.168a1.939,1.939,0,0,0,1.059.252,2.711,2.711,0,0,0,1.059-.252A35.741,35.741,0,0,0,50.336,19.146v-6.1A2.139,2.139,0,0,0,48.369,10.924ZM40.4,22.374l-9.433,10.24a2.493,2.493,0,0,1-1.513.706H29.4a2.136,2.136,0,0,1-1.513-.605l-5.3-5.4a2.1,2.1,0,0,1,2.976-2.976l3.783,3.783L37.271,19.5a2.136,2.136,0,0,1,2.976-.151A2.2,2.2,0,0,1,40.4,22.374Z" fill="#7f74c7"/>
  </g>
</svg>
