<svg id="search" xmlns="http://www.w3.org/2000/svg" width="26.211" height="26.211" viewBox="0 0 26.211 26.211">
  <path id="Path_264" data-name="Path 264" d="M5.809,147.029,4.9,150.435l-3.335.071a13.128,13.128,0,0,1-.1-12.238h0l2.969.544,1.3,2.951a7.821,7.821,0,0,0,.074,5.266Z" transform="translate(0 -131.19)" fill="#fff"/>
  <path id="Path_265" data-name="Path 265" d="M274.216,208.176a13.1,13.1,0,0,1-4.672,12.668h0l-3.739-.191-.529-3.3a7.811,7.811,0,0,0,3.361-3.989h-7.008v-5.185h12.588Z" transform="translate(-248.234 -197.519)" fill="#fff"/>
  <path id="Path_266" data-name="Path 266" d="M50.256,316.894h0a13.11,13.11,0,0,1-19.748-4.009l4.247-3.477A7.794,7.794,0,0,0,45.988,313.4Z" transform="translate(-28.947 -293.569)" fill="#fff"/>
  <path id="Path_267" data-name="Path 267" d="M48.629,3.017,44.384,6.493a7.793,7.793,0,0,0-11.49,4.081l-4.269-3.5h0A13.108,13.108,0,0,1,48.629,3.017Z" transform="translate(-27.159)" fill="#fff"/>
</svg>
